<?xml version="1.0" encoding="utf-8"?>
<!-- Generator: Adobe Illustrator 27.5.0, SVG Export Plug-In . SVG Version: 6.00 Build 0)  -->
<svg version="1.1" xmlns="http://www.w3.org/2000/svg" xmlns:xlink="http://www.w3.org/1999/xlink" x="0px" y="0px"
	 viewBox="0 0 500 500" style="enable-background:new 0 0 500 500;" xml:space="preserve">
<g id="BACKGROUND">
	<rect style="fill:#FFFFFF;" width="500" height="500"/>
</g>
<g id="OBJECTS">
	<g>
		<defs>
			<rect id="SVGID_1_" width="500" height="500"/>
		</defs>
		<clipPath id="SVGID_00000046338714403693125380000002310245568245684637_">
			<use xlink:href="#SVGID_1_"  style="overflow:visible;"/>
		</clipPath>
		
			<rect y="451.252" style="clip-path:url(#SVGID_00000046338714403693125380000002310245568245684637_);fill:#D2DFEE;" width="557.122" height="98.598"/>
		<g style="clip-path:url(#SVGID_00000046338714403693125380000002310245568245684637_);">
			<g>
				<g>
					<path style="fill:#8EC098;" d="M54.019,452.968c11.747-26.312-3.013-46.595,12.592-66.633
						c15.605-20.038,21.961-38.796,21.961-38.796s21.159,21.944,3.601,46.359c-17.558,24.415-16.316,49.166-32.543,62.31
						L54.019,452.968z"/>
					<path style="fill:none;stroke:#B8D8BD;stroke-miterlimit:10;" d="M88.571,347.54c4.193,19.39-0.838,31.941-12.834,45.022
						c-11.996,13.082-3.617,25.468-9.169,40.457c-5.553,14.99-9.784,21.546-9.784,21.546"/>
				</g>
				<g>
					<path style="fill:#76A87E;" d="M51.237,451.214c5.345-33.144-17.349-51.561-5.781-78.797
						c11.569-27.236,13.106-50.26,13.106-50.26s30.397,18.37,17.94,51.12c-12.456,32.75-3.644,60.245-17.978,79.906L51.237,451.214z
						"/>
					<path style="fill:none;stroke:#B8D8BD;stroke-miterlimit:10;" d="M58.563,322.156c10.529,20.576,8.624,36.215-0.965,54.537
						c-9.588,18.323,3.556,29.759,1.794,48.3c-1.762,18.541-4.563,27.191-4.563,27.191"/>
				</g>
				<g>
					<path style="fill:#8EC098;" d="M45.778,450.92c-3.484-33.391-30.196-45.252-26.131-74.562
						c4.065-29.31-0.455-51.939-0.455-51.939s34.136,9.807,30.652,44.672c-3.484,34.865,12.195,59.111,3.484,81.83H45.778z"/>
					<path style="fill:none;stroke:#B8D8BD;stroke-miterlimit:10;" d="M19.191,324.419c15.531,17.118,17.77,32.712,13.292,52.901
						c-4.478,20.189,11.194,27.801,14.329,46.16c3.135,18.359,2.687,27.44,2.687,27.44"/>
				</g>
			</g>
			<rect x="39.816" y="447.367" style="fill:#AEBFCE;" width="33.591" height="61.618"/>
		</g>
		<g style="clip-path:url(#SVGID_00000046338714403693125380000002310245568245684637_);">
			<g>
				<path style="fill:#F9D5BF;" d="M235.292,386.087c0,0-18.751-2.744-22.867-4.573c-4.116-1.829-10.519-0.915-16.007,1.829
					c-5.488,2.744-17.836,5.488-15.55,10.061c2.287,4.573,54.423,2.744,54.423,2.744V386.087z"/>
				<path style="fill:#6B8BD1;" d="M454.64,514.05h-178.4l3.698-77.076c0,0,19.701-150.717,28.258-159.285
					c8.567-8.567,65.093-17.983,101.909-9.416c4.151,0.962,7.822,2.198,11.077,3.689c25.588,11.671,25.088,38.609,26.607,68.245
					C449.507,373.608,454.64,514.05,454.64,514.05z"/>
				<path style="fill:#5074B5;" d="M454.64,514.05h-47.072c-0.953-0.321-1.472-0.5-1.472-0.5s-15.049-191.826,15.087-241.587
					c25.588,11.671,25.088,38.609,26.607,68.245C449.507,373.608,454.64,514.05,454.64,514.05z"/>
				<path style="fill:#F7C272;" d="M360.445,503.78c-26.55-1.72-104.48-15.42-104.48-15.42l21.41-65.94l72.68-3.95l37.79-2.05
					l3.43-0.85c0,0,4.78,13.05,7.84,29.54c1.24,6.65,2.19,13.85,2.43,20.99C402.405,490.93,386.985,505.49,360.445,503.78z"/>
				<path style="opacity:0.25;fill:#C4832C;" d="M399.115,445.111c-18.72-3.4-56.08-10.69-89.37-20.17l40.31-6.47l37.79-2.05
					l3.43-0.85C391.275,415.57,396.055,428.62,399.115,445.111z"/>
				<path style="fill:#FCA695;" d="M413.295,402.14c-1.727,3.661-9.558,5.001-19.682,5.038c-0.207,7.237-0.387,12.473-0.509,14.502
					c-0.651,11.067-83.36,3.255-83.36,3.255s-1.302-8.378-2.953-19.852c-27.721-0.415-77.444-2.076-77.444-2.076l1.83-18.748
					l55.771-6.869c0,0,3.68-17.37,5.972-27.89c2.283-10.52,12.341-42.534,18.748-51.223c3.434-4.671,8.331-8.416,12.124-10.879
					c6.625-3.756,21.718-11.531,43.911-9.001c7.774,0.886,13.058,2.774,16.757,4.368c10.442,5.45,20.786,15.049,27.532,36.005
					C417.447,335.707,418.504,391.063,413.295,402.14z"/>
				<path style="fill:#ED8574;" d="M300.234,349.957c22.198,5.564,68.855-2.058,68.855-2.058s2.092,9.195,3.909,14.583
					c1.817,5.388,6.328,11.114,1.442,11.936c-4.886,0.823-41.735,2.065-41.735,2.065l0.566,3.953l-28.719-11.226L300.234,349.957z"
					/>
				<path style="fill:#FFFFFF;" d="M333.858,282.573c0,0-4.167,11.938-1.153,21.281l10.669-9.103l7.68,12.936
					c0,0,19.053-15.717,22.581-28.341C373.636,279.346,360.985,271.113,333.858,282.573z"/>
				<line style="fill:none;stroke:#588760;stroke-miterlimit:10;" x1="306.791" y1="405.084" x2="304.553" y2="393.007"/>
				<path style="fill:#5A2402;" d="M365.852,171.593c2.017-1.518,4.452-2.402,6.926-2.906c9.768-1.993,20.41,2.081,26.709,9.807
					c6.3,7.726,8.187,18.699,5.277,28.234c-1.443,4.728-3.946,9.049-6.01,13.541c-2.064,4.492-3.725,9.359-3.309,14.285
					c0.417,4.926,3.348,9.903,8.038,11.465c-5.47,1.824-11.958,0.052-15.741-4.299c-0.037,2.039,0.389,4.086,1.237,5.941
					c-4.467-1.737-8.065-5.573-9.515-10.141c-2.611-8.231,1.633-17.264-0.06-25.731c-1.025-5.13-4.318-9.764-8.825-12.419
					c-4.944-2.913-11.552-4.355-11.522-11.064C359.085,182.396,360.937,175.292,365.852,171.593z"/>
				<path style="fill:#5A2402;" d="M302.122,222.696c-0.243-2.467-0.271-4.977,0.232-7.404c1.3-6.266,5.971-11.293,11.017-15.23
					c11.123-8.678,25.989-13.723,39.563-9.878c7.996,2.264,15.091,7.568,19.526,14.595c4.435,7.027,6.17,15.714,4.774,23.906
					c-0.542,3.18-1.534,6.27-2.732,9.264c-2.738,6.841-6.577,13.24-11.324,18.875c-1.528,1.814-3.214,3.597-5.382,4.559
					c-2.306,1.023-4.927,1.016-7.443,0.843c-12.546-0.861-24.809-5.492-34.793-13.139
					C307.481,242.901,303.103,232.683,302.122,222.696z"/>
				<path style="fill:#F9D5BF;" d="M362.836,280.818c0,0-7.509,7.691-17.244,8.574c-2.644,0.24-4.927-1.93-4.767-4.579
					c0.124-2.073-0.025-4.251-0.272-6.206c-0.471-3.665-1.28-6.561-1.28-6.561l19.121-16.664l0.942,5.364c0,0,0,0,0,0.01
					L362.836,280.818z"/>
				<path style="fill:#FCA695;" d="M359.335,260.746c0,0,0,0,0,0.01c-2.109,3.931-8.557,14.474-18.783,17.852
					c-0.471-3.665-1.28-6.561-1.28-6.561l19.121-16.664L359.335,260.746z"/>
				<path style="fill:#F9D5BF;" d="M307.409,228.569c-0.726,7.584-1.473,34.706,14.821,45.986c12.7,8.792,33.34-6.267,38.298-18.857
					c6.302-16.005,5.741-43.141-11.902-48.229C327.174,201.283,309.418,207.572,307.409,228.569z"/>
				<ellipse style="fill:#5A2402;" cx="317.599" cy="239.028" rx="2.256" ry="3.008"/>
				<path style="fill:#5A2402;" d="M306.479,227.484c-2.499-8.281,1.127-17.675,7.733-23.258c6.606-5.583,15.681-7.662,24.306-7.021
					c2.931,0.218,5.896,0.746,8.488,2.13c3.985,2.128,15.408,6.595,17.362,10.668c6.255,13.037,5.059,31.62-9.42,41.3
					c-3.321-2.285-3.998-6.886-3.855-10.915c0.144-4.029,0.76-8.292-1.014-11.911c0.069,0.14-6.402,0.076-7.05-0.049
					c-2.418-0.469-4.743-1.393-6.85-2.664c-4.291-2.588-7.21-6.442-8.972-11.056C325.172,223.149,314.598,228.547,306.479,227.484z"
					/>
				<path style="fill:#5A2402;" d="M339.972,239.78c0,1.661-1.01,3.008-2.256,3.008s-2.256-1.347-2.256-3.008
					c0-1.661,1.01-3.008,2.256-3.008S339.972,238.119,339.972,239.78z"/>
				<path style="fill:#F9D5BF;" d="M356.141,243.164c0,0,3.196-6.016,8.084-3.948c4.276,1.809,3.572,6.204,2.256,9.588
					c-1.316,3.384-5.264,6.768-8.084,6.58S352.757,251.625,356.141,243.164z"/>
				<path style="fill:#FCA695;" d="M357.081,250.121c0,0,4.7,2.068,5.828-4.512c0.752-3.572-2.256-3.572-2.256-3.572
					S356.893,244.856,357.081,250.121z"/>
				<path style="fill:#5A2402;" d="M320.419,225.116c-3.48-0.773-6.518,0.376-7.019,1.88c-0.501,1.504,1.003,2.883,2.883,2.256
					c1.88-0.627,3.76,1.128,5.264,0.501C323.051,229.126,323.804,225.868,320.419,225.116z"/>
				<path style="fill:#5A2402;" d="M336.258,226.118c3.48-0.773,6.518,0.376,7.019,1.88c0.501,1.504-1.003,2.883-2.883,2.256
					c-1.88-0.627-3.76,1.128-5.264,0.501C333.626,230.129,332.874,226.87,336.258,226.118z"/>
				<path style="fill:none;stroke:#DB7665;stroke-linecap:round;stroke-miterlimit:10;" d="M357.833,251.437
					c-1.818-1.692-0.387-7.657,2.82-9.4c2.883-1.567,4.136,2.444,4.136,2.444"/>
				<path style="fill:none;stroke:#DB7665;stroke-linecap:round;stroke-miterlimit:10;" d="M358.021,244.982
					c0,0,3.259-0.376,3.635,2.632"/>
				<path style="fill:none;stroke:#DB7665;stroke-linecap:round;stroke-miterlimit:10;" d="M322.105,237.979
					c1.01,4.58,0.238,9.53-2.12,13.585c-0.155,0.266-0.322,0.553-0.292,0.86c0.045,0.456,0.498,0.75,0.917,0.936
					c2.251,0.996,4.982,0.826,7.092-0.44"/>
				<path style="fill:none;stroke:#DB7665;stroke-linecap:round;stroke-miterlimit:10;" d="M323.932,260.624
					c5.319,0.225,10.873-1.925,14.023-6.217"/>
				<path style="fill:#7F3F98;" d="M362.149,191.343c-1.585-1.054-3.627-2.134-5.272-1.176c-0.494,0.288-0.912,0.853-0.749,1.401
					c0.086,0.29,0.315,0.511,0.537,0.716c3.289,3.049,6.875,5.776,10.691,8.131c0.332,0.205,0.686,0.413,1.075,0.422
					c0.715,0.016,1.291-0.68,1.376-1.39c0.085-0.71-0.2-1.411-0.529-2.046c-1.601-3.096-4.431-5.536-7.729-6.663"/>
				<path style="fill:#F9D5BF;" d="M333.271,380.435l-10.627-4.867c0,0-15.505-8.599-20.064-7.948
					c-4.559,0.651-11.723,6.513-15.631,9.769c-3.908,3.256-13.026,14.328-7.164,16.282c5.861,1.954,12.374,4.559,18.236,1.954
					c5.862-2.605,13.677-4.559,22.143-2.605c8.467,1.954,13.903,1.748,13.903,1.748L333.271,380.435z"/>
				<path style="fill:none;stroke:#BC5648;stroke-linecap:round;stroke-miterlimit:10;" d="M334.248,401.156l-1.542-24.674
					c0,0,26.526-0.457,33.386-0.915c6.86-0.457,10.976-1.829,10.976-1.829s-21.952-51.222-2.744-76.376"/>
				<path style="fill:none;stroke:#BC5648;stroke-linecap:round;stroke-miterlimit:10;" d="M377.067,373.739
					c9.907,2.322,16.546,8.414,16.546,8.414"/>
				<path style="fill:none;stroke:#BC5648;stroke-linecap:round;stroke-miterlimit:10;" d="M321.729,292.79
					c0,0-9.604,21.038-11.891,28.355c-2.287,7.318-9.604,22.41-9.604,28.812c0,6.403,4.116,16.464,4.116,16.464"/>
				<path style="fill:none;stroke:#DB7665;stroke-linecap:round;stroke-miterlimit:10;" d="M340.005,275.246
					c10.736-3.03,18.016-14.828,18.016-14.828"/>
				<path style="fill:none;stroke:#A36B28;stroke-linecap:round;stroke-miterlimit:10;" d="M377.705,427.053
					c16.595,64.574,7.282,79.684-115.659,50.782"/>
			</g>
			<g>
				<g>
					<rect x="241.947" y="394.428" style="fill:#6489B5;" width="5.713" height="2.666"/>
					<rect x="249.141" y="394.428" style="fill:#6489B5;" width="5.713" height="2.666"/>
					<rect x="256.334" y="394.428" style="fill:#6489B5;" width="5.712" height="2.666"/>
					<rect x="263.528" y="394.428" style="fill:#6489B5;" width="5.713" height="2.666"/>
					<rect x="270.721" y="394.428" style="fill:#6489B5;" width="5.713" height="2.666"/>
					<rect x="277.914" y="394.428" style="fill:#6489B5;" width="5.713" height="2.666"/>
					<rect x="285.108" y="394.428" style="fill:#6489B5;" width="5.713" height="2.666"/>
					<rect x="292.301" y="394.428" style="fill:#6489B5;" width="5.712" height="2.666"/>
					<rect x="299.495" y="394.428" style="fill:#6489B5;" width="5.713" height="2.666"/>
					<rect x="306.688" y="394.428" style="fill:#6489B5;" width="5.713" height="2.666"/>
					<rect x="313.882" y="394.428" style="fill:#6489B5;" width="5.713" height="2.666"/>
				</g>
				<rect x="88.393" y="401.078" style="fill:#E28F81;" width="302.479" height="8.402"/>
				<rect x="88.393" y="401.078" style="fill:#EF9C8E;" width="212.038" height="8.402"/>
				<rect x="103.67" y="409.48" style="fill:#E28F81;" width="271.926" height="104.074"/>
				<rect x="103.67" y="409.48" style="fill:#D18075;" width="200.883" height="104.074"/>
				<rect x="145.692" y="440.987" style="fill:#F9D5BF;" width="101.437" height="20.53"/>
				<rect x="103.67" y="409.48" style="fill:#CE796E;" width="271.926" height="5.674"/>
				<path style="fill:#90AED1;" d="M258.342,372.269H146.59c-7.267,0-13.157-5.891-13.157-13.157v-76.631
					c0-7.266,5.891-13.157,13.157-13.157h111.753c7.266,0,13.157,5.891,13.157,13.157v76.631
					C271.5,366.378,265.609,372.269,258.342,372.269z"/>
				<path style="fill:#AAC2E5;" d="M248.048,372.269H136.295c-7.266,0-13.157-5.891-13.157-13.157v-76.631
					c0-7.266,5.891-13.157,13.157-13.157h111.753c7.266,0,13.157,5.891,13.157,13.157v76.631
					C261.205,366.378,255.314,372.269,248.048,372.269z"/>
				<path style="fill:#90AED1;" d="M153.416,400.73c0,0,13.928-67.217,18.772-69.639c4.844-2.422,20.533-2.706,23.561-0.284
					c3.028,2.422,6.717,69.923,6.717,69.923H153.416z"/>
				<path style="fill:#AAC2E5;" d="M177.672,338.129c-2.661,0.307-5.034,10.754-4.576,13.5c0.458,2.746,7.093,2.975,8.924,1.144
					C183.851,350.943,183.622,337.443,177.672,338.129z"/>
				<path style="fill:#6489B5;" d="M231.762,401.737h-86.555c-2.145,0-3.883-1.739-3.883-3.883V397.4
					c0-2.145,1.739-3.883,3.883-3.883h86.555c2.145,0,3.883,1.739,3.883,3.883v0.454
					C235.645,399.999,233.906,401.737,231.762,401.737z"/>
				<rect x="239.597" y="396.009" style="fill:#6489B5;" width="82.348" height="5.147"/>
				<g>
					<line style="fill:none;stroke:#91443C;stroke-miterlimit:10;" x1="103.67" y1="409.48" x2="365.44" y2="409.48"/>
				</g>
				<line style="fill:none;stroke:#465C72;stroke-miterlimit:10;" x1="261.205" y1="283.92" x2="261.205" y2="359.112"/>
				<line style="fill:none;stroke:#465C72;stroke-miterlimit:10;" x1="196.41" y1="335.079" x2="201.801" y2="389.472"/>
			</g>
			<g>
				<path style="fill:#9FB7CE;" d="M254.374,207.618c0,4.269-1.728,8.134-4.525,10.931s-6.662,4.525-10.93,4.525h-78.347
					c-8.537,0-15.456-6.919-15.456-15.456c0-4.268,1.728-8.134,4.525-10.93c2.797-2.797,6.662-4.525,10.93-4.525h1.687
					c-0.058-0.524-0.089-1.058-0.089-1.603c0-8.239,6.683-14.921,14.921-14.921c2.477,0,4.813,0.602,6.872,1.681
					c4.462-10.019,14.502-17.001,26.177-17.001c15.817,0,28.638,12.827,28.638,28.644c0,1.084-0.058,2.153-0.178,3.2h0.32
					C247.455,192.163,254.374,199.081,254.374,207.618z"/>
				<g>
					<g>
						
							<rect x="94.716" y="13.303" transform="matrix(-1.836970e-16 1 -1 -1.836970e-16 156.379 -47.3052)" style="fill:#E2EAF2;" width="14.252" height="82.467"/>
						<path style="fill:#FFFFFF;" d="M128.964,57.399c-1.581,0-2.862-1.282-2.862-2.862c0-1.581,1.281-2.862,2.862-2.862
							c1.581,0,2.862,1.282,2.862,2.862C131.826,56.118,130.544,57.399,128.964,57.399z"/>
						<path style="fill:#FFFFFF;" d="M118.862,57.399c-1.581,0-2.862-1.282-2.862-2.862c0-1.581,1.282-2.862,2.862-2.862
							c1.581,0,2.862,1.282,2.862,2.862C121.725,56.118,120.443,57.399,118.862,57.399z"/>
						<path style="fill:#FFFFFF;" d="M108.761,57.399c-1.581,0-2.862-1.282-2.862-2.862c0-1.581,1.281-2.862,2.862-2.862
							c1.581,0,2.862,1.282,2.862,2.862C111.624,56.118,110.342,57.399,108.761,57.399z"/>
						
							<rect x="69.541" y="53.359" transform="matrix(-1.836970e-16 1 -1 -1.836970e-16 128.7876 -19.7139)" style="fill:#FFFFFF;" width="9.42" height="2.355"/>
						
							<rect x="65.812" y="53.359" transform="matrix(-1.836970e-16 1 -1 -1.836970e-16 125.0589 -15.9852)" style="fill:#FFFFFF;" width="9.42" height="2.355"/>
						
							<rect x="62.083" y="53.359" transform="matrix(-1.836970e-16 1 -1 -1.836970e-16 121.3302 -12.2565)" style="fill:#FFFFFF;" width="9.42" height="2.355"/>
					</g>
					<g>
						
							<rect x="94.716" y="32.339" transform="matrix(-1.836970e-16 1 -1 -1.836970e-16 175.415 -28.2693)" style="fill:#E2EAF2;" width="14.252" height="82.467"/>
						<path style="fill:#FFFFFF;" d="M128.964,76.435c-1.581,0-2.862-1.281-2.862-2.862c0-1.581,1.281-2.862,2.862-2.862
							c1.581,0,2.862,1.281,2.862,2.862C131.826,75.154,130.544,76.435,128.964,76.435z"/>
						<path style="fill:#FFFFFF;" d="M118.862,76.435c-1.581,0-2.862-1.281-2.862-2.862c0-1.581,1.282-2.862,2.862-2.862
							c1.581,0,2.862,1.281,2.862,2.862C121.725,75.154,120.443,76.435,118.862,76.435z"/>
						<path style="fill:#FFFFFF;" d="M108.761,76.435c-1.581,0-2.862-1.281-2.862-2.862c0-1.581,1.281-2.862,2.862-2.862
							c1.581,0,2.862,1.281,2.862,2.862C111.624,75.154,110.342,76.435,108.761,76.435z"/>
						
							<rect x="69.541" y="72.395" transform="matrix(-1.836970e-16 1 -1 -1.836970e-16 147.8235 -0.678)" style="fill:#FFFFFF;" width="9.42" height="2.355"/>
						
							<rect x="65.812" y="72.395" transform="matrix(-1.836970e-16 1 -1 -1.836970e-16 144.0948 3.0507)" style="fill:#FFFFFF;" width="9.42" height="2.355"/>
						
							<rect x="62.083" y="72.395" transform="matrix(-1.836970e-16 1 -1 -1.836970e-16 140.3661 6.7794)" style="fill:#FFFFFF;" width="9.42" height="2.355"/>
					</g>
					<g>
						
							<rect x="94.716" y="51.375" transform="matrix(-1.836970e-16 1 -1 -1.836970e-16 194.4509 -9.2334)" style="fill:#E2EAF2;" width="14.252" height="82.467"/>
						<path style="fill:#FFFFFF;" d="M128.964,95.471c-1.581,0-2.862-1.282-2.862-2.862c0-1.581,1.281-2.862,2.862-2.862
							c1.581,0,2.862,1.282,2.862,2.862C131.826,94.189,130.544,95.471,128.964,95.471z"/>
						<path style="fill:#FFFFFF;" d="M118.862,95.471c-1.581,0-2.862-1.282-2.862-2.862c0-1.581,1.282-2.862,2.862-2.862
							c1.581,0,2.862,1.282,2.862,2.862C121.725,94.189,120.443,95.471,118.862,95.471z"/>
						<path style="fill:#FFFFFF;" d="M108.761,95.471c-1.581,0-2.862-1.282-2.862-2.862c0-1.581,1.281-2.862,2.862-2.862
							c1.581,0,2.862,1.282,2.862,2.862C111.624,94.189,110.342,95.471,108.761,95.471z"/>
						
							<rect x="69.541" y="91.431" transform="matrix(-1.836970e-16 1 -1 -1.836970e-16 166.8594 18.358)" style="fill:#FFFFFF;" width="9.42" height="2.355"/>
						
							<rect x="65.812" y="91.431" transform="matrix(-1.836970e-16 1 -1 -1.836970e-16 163.1307 22.0867)" style="fill:#FFFFFF;" width="9.42" height="2.355"/>
						
							<rect x="62.083" y="91.431" transform="matrix(-1.836970e-16 1 -1 -1.836970e-16 159.4021 25.8153)" style="fill:#FFFFFF;" width="9.42" height="2.355"/>
					</g>
					<rect x="75.68" y="110.492" style="fill:#E2EAF2;" width="52.324" height="1.962"/>
					<rect x="100.939" y="97.856" style="fill:#E2EAF2;" width="1.806" height="13.616"/>
					<path style="fill:#E2EAF2;" d="M105.628,111.473c0,2.091-1.695,3.786-3.786,3.786c-2.091,0-3.786-1.695-3.786-3.786
						s1.695-3.786,3.786-3.786C103.933,107.687,105.628,109.382,105.628,111.473z"/>
					<circle style="fill:#FFFFFF;" cx="101.842" cy="111.473" r="2.207"/>
					
						<line style="fill:none;stroke:#8496A5;stroke-linecap:round;stroke-miterlimit:10;" x1="60.609" y1="99.735" x2="143.076" y2="99.735"/>
					
						<line style="fill:none;stroke:#8496A5;stroke-linecap:round;stroke-miterlimit:10;" x1="60.609" y1="80.699" x2="143.076" y2="80.699"/>
					
						<line style="fill:none;stroke:#8496A5;stroke-linecap:round;stroke-miterlimit:10;" x1="60.609" y1="61.663" x2="143.076" y2="61.663"/>
				</g>
				<g>
					<path style="fill:#E2EAF2;" d="M394.131,102.393h-71.134c-1.861,0-3.37-1.509-3.37-3.37V53.847c0-1.861,1.509-3.37,3.37-3.37
						h71.134c1.861,0,3.37,1.509,3.37,3.37v45.176C397.501,100.884,395.993,102.393,394.131,102.393z"/>
					<path style="fill:#E2EAF2;stroke:#8496A5;stroke-miterlimit:10;" d="M394.131,102.393h-71.134c-1.861,0-3.37-1.509-3.37-3.37
						v-6.838c0-1.861,1.509-3.37,3.37-3.37h71.134c1.861,0,3.37,1.509,3.37,3.37v6.838
						C397.501,100.884,395.993,102.393,394.131,102.393z"/>
					<path style="fill:#FFFFFF;" d="M329.429,56.749c0,1.786-1.448,3.233-3.233,3.233c-1.786,0-3.233-1.448-3.233-3.233
						c0-1.786,1.448-3.233,3.233-3.233C327.981,53.516,329.429,54.964,329.429,56.749z"/>
					<g>
						<path style="fill:#BCCCDD;" d="M340.085,77.238c0.942,0.58,2.32,1.063,3.77,1.063c2.15,0,3.408-1.135,3.408-2.779
							c0-1.522-0.871-2.391-3.069-3.237c-2.658-0.942-4.301-2.32-4.301-4.615c0-2.537,2.101-4.422,5.267-4.422
							c1.666,0,2.876,0.387,3.6,0.797l-0.58,1.716c-0.531-0.29-1.619-0.773-3.093-0.773c-2.223,0-3.067,1.329-3.067,2.441
							c0,1.522,0.99,2.271,3.236,3.141c2.754,1.063,4.157,2.392,4.157,4.785c0,2.512-1.861,4.687-5.703,4.687
							c-1.57,0-3.286-0.459-4.155-1.04L340.085,77.238z"/>
						<path style="fill:#BCCCDD;" d="M352.004,77.238c0.942,0.58,2.32,1.063,3.77,1.063c2.15,0,3.408-1.135,3.408-2.779
							c0-1.522-0.872-2.391-3.069-3.237c-2.658-0.942-4.301-2.32-4.301-4.615c0-2.537,2.101-4.422,5.267-4.422
							c1.666,0,2.876,0.387,3.6,0.797l-0.58,1.716c-0.531-0.29-1.619-0.773-3.093-0.773c-2.223,0-3.067,1.329-3.067,2.441
							c0,1.522,0.99,2.271,3.236,3.141c2.754,1.063,4.157,2.392,4.157,4.785c0,2.512-1.861,4.687-5.704,4.687
							c-1.57,0-3.286-0.459-4.155-1.04L352.004,77.238z"/>
						<path style="fill:#BCCCDD;" d="M364.212,63.731c1.281-0.194,2.804-0.338,4.47-0.338c3.022,0,5.172,0.7,6.597,2.029
							c1.45,1.329,2.296,3.214,2.296,5.847c0,2.658-0.822,4.833-2.343,6.331c-1.523,1.522-4.035,2.343-7.201,2.343
							c-1.499,0-2.754-0.072-3.819-0.193V63.731z M366.315,78.132c0.531,0.096,1.304,0.121,2.127,0.121
							c4.494,0,6.933-2.513,6.933-6.911c0.026-3.841-2.15-6.282-6.595-6.282c-1.088,0-1.91,0.096-2.465,0.217V78.132z"/>
					</g>
				</g>
				<line style="fill:none;stroke:#A8C5E2;stroke-miterlimit:10;" x1="197.317" y1="269.324" x2="197.317" y2="223.074"/>
				<polyline style="fill:none;stroke:#A8C5E2;stroke-miterlimit:10;" points="210.138,160.319 210.138,137.007 102.106,137.007 
					102.106,120.744 				"/>
				<polyline style="fill:none;stroke:#A8C5E2;stroke-miterlimit:10;" points="210.138,137.007 359.965,137.007 359.965,105.664 
									"/>
				<path style="fill:#2C4C7C;" d="M98.195,123.707v-2.963h7.294v2.963c0,2.014-1.633,3.647-3.647,3.647l0,0
					C99.828,127.354,98.195,125.721,98.195,123.707z"/>
				<path style="fill:#2C4C7C;" d="M356.402,108.438v-2.963h7.294v2.963c0,2.014-1.633,3.647-3.647,3.647l0,0
					C358.035,112.085,356.402,110.452,356.402,108.438z"/>
				<path style="fill:#2C4C7C;" d="M213.785,157.025v2.963h-7.294v-2.963c0-2.014,1.633-3.647,3.647-3.647l0,0
					C212.153,153.378,213.785,155.011,213.785,157.025z"/>
				<path style="fill:#2C4C7C;" d="M200.964,267.337v2.963h-7.294v-2.963c0-2.014,1.633-3.647,3.647-3.647l0,0
					C199.331,263.69,200.964,265.323,200.964,267.337z"/>
				
					<text transform="matrix(1 0 0 1 177.5253 203.5219)" style="fill:#FFFFFF; font-family:'Montserrat-Bold'; font-size:16.1201px;">HOST</text>
				<g>
					
						<rect x="34.341" y="180.929" transform="matrix(-1.836970e-16 1 -1 -1.836970e-16 290.3295 147.2019)" style="fill:#E2EAF2;" width="74.446" height="75.673"/>
					<g>
						<rect x="55.893" y="196.176" style="fill:#FFFFFF;" width="43.48" height="5.247"/>
						<rect x="55.893" y="209.487" style="fill:#FFFFFF;" width="43.48" height="5.247"/>
						<rect x="55.893" y="222.797" style="fill:#FFFFFF;" width="43.48" height="5.247"/>
						<rect x="55.893" y="236.108" style="fill:#FFFFFF;" width="43.48" height="5.247"/>
						<circle style="fill:#B6CADD;" cx="46.379" cy="198.8" r="2.624"/>
						<path style="fill:#B6CADD;" d="M49.002,212.111c0,1.449-1.175,2.624-2.624,2.624s-2.624-1.175-2.624-2.624
							c0-1.449,1.175-2.624,2.624-2.624S49.002,210.661,49.002,212.111z"/>
						<circle style="fill:#B6CADD;" cx="46.379" cy="225.421" r="2.624"/>
						<circle style="fill:#B6CADD;" cx="46.379" cy="238.732" r="2.624"/>
					</g>
				</g>
				<g>
					<path style="fill:#76A87E;" d="M289.277,118.98c0,0-3.202,28.142-24.019,39.091c-20.817-10.949-24.02-39.091-24.02-39.091
						s15.964-2.785,24.02-11.294C273.313,116.195,289.277,118.98,289.277,118.98z"/>
					<path style="fill:#97BA9B;" d="M281.273,123.612c0,0-2.135,18.764-16.015,26.064c-13.88-7.3-16.015-26.064-16.015-26.064
						s10.644-1.857,16.015-7.53C270.629,121.755,281.273,123.612,281.273,123.612z"/>
					<polyline style="fill:none;stroke:#FFFFFF;stroke-width:2;stroke-miterlimit:10;" points="257.728,130.852 263.599,136.692 
						274.592,126.215 					"/>
				</g>
				<rect x="212.255" y="48.944" style="fill:#E2EAF2;" width="57.966" height="35.006"/>
				<g>
					<polyline style="fill:none;stroke:#8496A5;stroke-linecap:round;stroke-miterlimit:10;" points="212.255,48.944 
						241.238,66.447 270.221,48.944 					"/>
					
						<line style="fill:none;stroke:#8496A5;stroke-linecap:round;stroke-miterlimit:10;" x1="235.942" y1="63.248" x2="212.255" y2="83.95"/>
					
						<line style="fill:none;stroke:#8496A5;stroke-linecap:round;stroke-miterlimit:10;" x1="247.311" y1="63.248" x2="270.221" y2="83.95"/>
				</g>
				<polyline style="fill:none;stroke:#A8C5E2;stroke-miterlimit:10;" points="176.646,137.007 176.646,70.71 210.138,70.71 				"/>
				<path style="fill:#2C4C7C;" d="M209.293,67.063h2.963v7.294h-2.963c-2.014,0-3.647-1.633-3.647-3.647l0,0
					C205.646,68.696,207.279,67.063,209.293,67.063z"/>
				<g>
					<g>
						<path style="fill:#E2EAF2;" d="M421.353,120.363c-8.41,0-15.233,6.823-15.233,15.238c0,8.41,6.822,15.233,15.233,15.233
							c8.415,0,15.238-6.822,15.238-15.233C436.591,127.185,429.768,120.363,421.353,120.363z M421.353,143.155
							c-4.169,0-7.555-3.38-7.555-7.555s3.385-7.559,7.555-7.559c4.174,0,7.559,3.385,7.559,7.559S425.528,143.155,421.353,143.155z
							"/>
						<path style="fill:#E2EAF2;" d="M426.028,135.599c0,2.581-2.093,4.671-4.674,4.671c-2.578,0-4.671-2.09-4.671-4.671
							s2.093-4.674,4.671-4.674C423.935,130.925,426.028,133.018,426.028,135.599z"/>
						<g>
							<path style="fill:#E2EAF2;" d="M425.009,122.674h-7.317v-5.197c0-1.995,1.617-3.612,3.613-3.612h0.091
								c1.995,0,3.613,1.617,3.613,3.612V122.674z"/>
							<path style="fill:#E2EAF2;" d="M416.715,122.994l-5.919,4.301l-3.054-4.204c-1.173-1.614-0.815-3.873,0.799-5.046
								l0.074-0.054c1.614-1.173,3.873-0.815,5.046,0.799L416.715,122.994z"/>
							<path style="fill:#E2EAF2;" d="M410.193,128.13l-2.261,6.958l-4.942-1.606c-1.897-0.616-2.936-2.655-2.319-4.552l0.028-0.087
								c0.617-1.897,2.655-2.936,4.552-2.319L410.193,128.13z"/>
							<path style="fill:#E2EAF2;" d="M407.935,136.117l2.261,6.958l-4.942,1.606c-1.898,0.617-3.936-0.422-4.552-2.319
								l-0.028-0.087c-0.617-1.898,0.422-3.936,2.319-4.552L407.935,136.117z"/>
							<path style="fill:#E2EAF2;" d="M410.803,143.907l5.919,4.301l-3.054,4.204c-1.173,1.614-3.432,1.972-5.046,0.799
								l-0.074-0.054c-1.614-1.173-1.972-3.432-0.799-5.046L410.803,143.907z"/>
							<path style="fill:#E2EAF2;" d="M417.702,148.522h7.317v5.197c0,1.995-1.617,3.613-3.613,3.613h-0.091
								c-1.995,0-3.612-1.617-3.612-3.613V148.522z"/>
							<path style="fill:#E2EAF2;" d="M425.997,148.201l5.919-4.3l3.055,4.204c1.173,1.614,0.815,3.873-0.799,5.046l-0.074,0.054
								c-1.614,1.173-3.873,0.815-5.046-0.799L425.997,148.201z"/>
							<path style="fill:#E2EAF2;" d="M432.519,143.066l2.261-6.958l4.942,1.606c1.897,0.617,2.936,2.655,2.319,4.552l-0.028,0.087
								c-0.617,1.897-2.655,2.936-4.552,2.319L432.519,143.066z"/>
							<path style="fill:#E2EAF2;" d="M434.776,135.079l-2.261-6.958l4.942-1.606c1.898-0.617,3.936,0.422,4.552,2.319l0.028,0.087
								c0.616,1.898-0.422,3.936-2.319,4.552L434.776,135.079z"/>
							<path style="fill:#E2EAF2;" d="M431.908,127.289l-5.919-4.3l3.054-4.204c1.173-1.614,3.432-1.972,5.046-0.799l0.074,0.054
								c1.614,1.173,1.972,3.432,0.799,5.046L431.908,127.289z"/>
						</g>
					</g>
					<g>
						<path style="fill:#E2EAF2;" d="M449.895,179.084c-11.198,0-20.282,9.084-20.282,20.288c0,11.198,9.084,20.282,20.282,20.282
							c11.204,0,20.288-9.084,20.288-20.282C470.183,188.167,461.099,179.084,449.895,179.084z M449.895,209.43
							c-5.551,0-10.059-4.501-10.059-10.059s4.507-10.065,10.059-10.065c5.558,0,10.065,4.507,10.065,10.065
							S455.452,209.43,449.895,209.43z"/>
						<path style="fill:#E2EAF2;" d="M456.119,199.37c0,3.437-2.787,6.219-6.223,6.219c-3.433,0-6.219-2.783-6.219-6.219
							c0-3.436,2.787-6.223,6.219-6.223C453.332,193.147,456.119,195.934,456.119,199.37z"/>
						<g>
							<path style="fill:#E2EAF2;" d="M454.762,182.16h-9.742v-8.116c0-1.995,1.617-3.613,3.613-3.613h2.516
								c1.995,0,3.613,1.617,3.613,3.613V182.16z"/>
							<path style="fill:#E2EAF2;" d="M443.718,182.588l-7.881,5.726l-4.771-6.566c-1.173-1.614-0.815-3.873,0.799-5.046
								l2.036-1.479c1.614-1.173,3.873-0.815,5.046,0.799L443.718,182.588z"/>
							<path style="fill:#E2EAF2;" d="M435.035,189.425l-3.01,9.265l-7.719-2.508c-1.898-0.617-2.936-2.655-2.319-4.552l0.778-2.393
								c0.617-1.898,2.655-2.936,4.552-2.319L435.035,189.425z"/>
							<path style="fill:#E2EAF2;" d="M432.029,200.06l3.01,9.265l-7.719,2.508c-1.898,0.617-3.936-0.422-4.552-2.319l-0.778-2.393
								c-0.617-1.898,0.422-3.936,2.319-4.552L432.029,200.06z"/>
							<path style="fill:#E2EAF2;" d="M435.848,210.431l7.881,5.726l-4.771,6.566c-1.173,1.614-3.432,1.972-5.046,0.799
								l-2.036-1.479c-1.614-1.173-1.972-3.432-0.799-5.046L435.848,210.431z"/>
							<path style="fill:#E2EAF2;" d="M445.034,216.577h9.742v8.116c0,1.995-1.617,3.613-3.613,3.613h-2.517
								c-1.995,0-3.613-1.617-3.613-3.613V216.577z"/>
							<path style="fill:#E2EAF2;" d="M456.077,216.149l7.881-5.726l4.771,6.566c1.173,1.614,0.815,3.873-0.799,5.046l-2.036,1.479
								c-1.614,1.173-3.873,0.815-5.046-0.799L456.077,216.149z"/>
							<path style="fill:#E2EAF2;" d="M464.761,209.312l3.01-9.265l7.719,2.508c1.897,0.617,2.936,2.655,2.319,4.552l-0.778,2.393
								c-0.617,1.898-2.655,2.936-4.552,2.319L464.761,209.312z"/>
							<path style="fill:#E2EAF2;" d="M467.767,198.677l-3.01-9.265l7.719-2.508c1.897-0.617,3.936,0.422,4.552,2.319l0.778,2.393
								c0.616,1.897-0.422,3.936-2.319,4.552L467.767,198.677z"/>
							<path style="fill:#E2EAF2;" d="M463.948,188.306l-7.881-5.726l4.771-6.566c1.173-1.614,3.432-1.972,5.046-0.799l2.036,1.479
								c1.614,1.173,1.972,3.432,0.799,5.046L463.948,188.306z"/>
						</g>
					</g>
				</g>
			</g>
		</g>
	</g>
</g>
</svg>
